<?xml version="1.0" encoding="UTF-8"?>
<!DOCTYPE svg PUBLIC "-//W3C//DTD SVG 1.1//EN" "http://www.w3.org/Graphics/SVG/1.1/DTD/svg11.dtd">
<svg xmlns="http://www.w3.org/2000/svg" version="1.1" width="224px" height="225px" style="shape-rendering:geometricPrecision; text-rendering:geometricPrecision; image-rendering:optimizeQuality; fill-rule:evenodd; clip-rule:evenodd" xmlns:xlink="http://www.w3.org/1999/xlink">
<g><path style="opacity:0.907" fill="#000102" d="M 96.5,1.5 C 146.56,-2.55555 184.393,16.7778 210,59.5C 226.667,94.8333 226.667,130.167 210,165.5C 180.036,213.385 137.202,231.552 81.5,220C 36.1238,205.291 9.29051,174.458 1,127.5C -3.54402,77.4191 15.6226,39.5857 58.5,14C 70.7232,8.09171 83.3899,3.92504 96.5,1.5 Z"/></g>
<g><path style="opacity:1" fill="#2c5367" d="M 97.5,7.5 C 153.186,4.74031 191.353,29.0736 212,80.5C 224.653,132.229 209.153,173.063 165.5,203C 114.425,228.571 69.2583,220.738 30,179.5C 7.30707,149.714 0.973739,116.714 11,80.5C 26.1922,39.8438 55.0256,15.5105 97.5,7.5 Z"/></g>
<g><path style="opacity:1" fill="#f2f6f7" d="M 87.5,58.5 C 93.808,60.047 99.808,62.3803 105.5,65.5C 106.306,66.7281 107.306,67.7281 108.5,68.5C 108.5,70.5 107.5,71.5 105.5,71.5C 100.129,68.7093 94.4621,66.7093 88.5,65.5C 81.1285,63.4728 73.7952,63.1394 66.5,64.5C 63.3522,65.1404 63.0188,66.1404 65.5,67.5C 72.9818,68.492 80.6484,68.8254 88.5,68.5C 90.5145,69.9238 92.8478,70.5905 95.5,70.5C 99.0075,71.1154 102.341,72.1154 105.5,73.5C 107.28,74.9899 107.946,76.9899 107.5,79.5C 107.071,91.4339 108.071,103.101 110.5,114.5C 110.183,118.702 110.517,122.702 111.5,126.5C 111.5,129.5 111.5,132.5 111.5,135.5C 111.799,137.604 111.466,139.604 110.5,141.5C 109.583,140.873 108.583,140.539 107.5,140.5C 105.938,140.267 104.605,139.6 103.5,138.5C 101.287,137.227 98.9538,136.227 96.5,135.5C 94.8516,134.073 92.8516,133.24 90.5,133C 80.4996,131.811 70.8329,132.644 61.5,135.5C 59.8425,125.708 58.8425,115.708 58.5,105.5C 58.5,94.1667 58.5,82.8333 58.5,71.5C 58.7947,69.2646 58.4614,67.2646 57.5,65.5C 55.31,64.6255 54.31,62.9589 54.5,60.5C 65.3321,58.9991 76.3321,58.3324 87.5,58.5 Z"/></g>
<g><path style="opacity:1" fill="#0a2554" d="M 87.5,58.5 C 94.4232,58.0972 100.757,60.2639 106.5,65C 106.272,65.3988 105.938,65.5654 105.5,65.5C 99.808,62.3803 93.808,60.047 87.5,58.5 Z"/></g>
<g><path style="opacity:1" fill="#f1f6f8" d="M 164.5,70.5 C 164.5,72.1667 164.5,73.8333 164.5,75.5C 164.45,81.3895 165.116,87.0562 166.5,92.5C 166.5,93.8333 166.5,95.1667 166.5,96.5C 166.35,103.721 167.017,110.721 168.5,117.5C 168.954,124.159 169.287,130.826 169.5,137.5C 164.101,136.366 158.768,135.032 153.5,133.5C 152.167,133.5 150.833,133.5 149.5,133.5C 147.359,132.837 145.025,132.503 142.5,132.5C 138.859,132.315 135.526,132.981 132.5,134.5C 130.102,134.259 128.102,134.926 126.5,136.5C 123.883,137.786 121.55,139.453 119.5,141.5C 118.833,138.5 118.167,135.5 117.5,132.5C 117.826,124.316 117.492,116.316 116.5,108.5C 116.5,107.833 116.5,107.167 116.5,106.5C 116.924,98.685 116.257,91.0183 114.5,83.5C 114.5,80.5 114.5,77.5 114.5,74.5C 117.659,72.5619 120.992,71.2285 124.5,70.5C 127.054,69.612 129.721,69.2786 132.5,69.5C 136.833,69.5 141.167,69.5 145.5,69.5C 149.545,71.1773 153.878,71.8439 158.5,71.5C 158.78,68.6118 157.447,67.1118 154.5,67C 145.833,66.3333 137.167,66.3333 128.5,67C 125.621,67.546 122.954,68.3794 120.5,69.5C 118.5,70.5 116.5,71.5 114.5,72.5C 112.915,71.9976 112.415,70.9976 113,69.5C 118.874,64.4232 125.707,61.2565 133.5,60C 144.041,58.8756 154.375,59.7089 164.5,62.5C 164.5,65.1667 164.5,67.8333 164.5,70.5 Z"/></g>
<g><path style="opacity:1" fill="#184462" d="M 66.5,64.5 C 73.7952,63.1394 81.1285,63.4728 88.5,65.5C 88.9175,66.2216 89.5842,66.7216 90.5,67C 85.5111,67.4993 80.5111,67.6659 75.5,67.5C 76.9516,66.6981 78.6183,66.1981 80.5,66C 75.9342,64.6908 71.2675,64.1908 66.5,64.5 Z"/></g>
<g><path style="opacity:1" fill="#042150" d="M 66.5,64.5 C 71.2675,64.1908 75.9342,64.6908 80.5,66C 78.6183,66.1981 76.9516,66.6981 75.5,67.5C 72.1667,67.5 68.8333,67.5 65.5,67.5C 63.0188,66.1404 63.3522,65.1404 66.5,64.5 Z"/></g>
<g><path style="opacity:1" fill="#1f506e" d="M 145.5,69.5 C 147.199,69.6602 148.866,69.4935 150.5,69C 144.947,67.4301 139.281,67.0968 133.5,68C 132.944,68.3826 132.611,68.8826 132.5,69.5C 129.721,69.2786 127.054,69.612 124.5,70.5C 122.901,70.7678 121.568,70.4345 120.5,69.5C 122.954,68.3794 125.621,67.546 128.5,67C 137.167,66.3333 145.833,66.3333 154.5,67C 157.447,67.1118 158.78,68.6118 158.5,71.5C 153.878,71.8439 149.545,71.1773 145.5,69.5 Z"/></g>
<g><path style="opacity:1" fill="#417185" d="M 88.5,65.5 C 94.4621,66.7093 100.129,68.7093 105.5,71.5C 105.5,72.1667 105.5,72.8333 105.5,73.5C 102.341,72.1154 99.0075,71.1154 95.5,70.5C 93.4855,69.0762 91.1522,68.4095 88.5,68.5C 80.6484,68.8254 72.9818,68.492 65.5,67.5C 68.8333,67.5 72.1667,67.5 75.5,67.5C 80.5111,67.6659 85.5111,67.4993 90.5,67C 89.5842,66.7216 88.9175,66.2216 88.5,65.5 Z"/></g>
<g><path style="opacity:1" fill="#082e65" d="M 145.5,69.5 C 141.167,69.5 136.833,69.5 132.5,69.5C 132.611,68.8826 132.944,68.3826 133.5,68C 139.281,67.0968 144.947,67.4301 150.5,69C 148.866,69.4935 147.199,69.6602 145.5,69.5 Z"/></g>
<g><path style="opacity:1" fill="#7badc2" d="M 88.5,68.5 C 91.1522,68.4095 93.4855,69.0762 95.5,70.5C 92.8478,70.5905 90.5145,69.9238 88.5,68.5 Z"/></g>
<g><path style="opacity:1" fill="#5b7682" d="M 120.5,69.5 C 121.568,70.4345 122.901,70.7678 124.5,70.5C 120.992,71.2285 117.659,72.5619 114.5,74.5C 114.5,73.8333 114.5,73.1667 114.5,72.5C 116.5,71.5 118.5,70.5 120.5,69.5 Z"/></g>
<g><path style="opacity:1" fill="#06608a" d="M 108.5,68.5 C 109.5,68.5 110.5,68.5 111.5,68.5C 112.162,72.4659 112.495,76.4659 112.5,80.5C 109.993,84.3503 108.993,88.6836 109.5,93.5C 108.833,88.8333 108.167,84.1667 107.5,79.5C 107.946,76.9899 107.28,74.9899 105.5,73.5C 105.5,72.8333 105.5,72.1667 105.5,71.5C 107.5,71.5 108.5,70.5 108.5,68.5 Z"/></g>
<g><path style="opacity:1" fill="#97b7c3" d="M 52.5,72.5 C 51.8333,72.5 51.5,72.8333 51.5,73.5C 50.1667,73.5 48.8333,73.5 47.5,73.5C 45.7354,72.5386 43.7354,72.2053 41.5,72.5C 41.5,79.1667 41.5,85.8333 41.5,92.5C 40.5088,85.6866 40.1755,78.6866 40.5,71.5C 44.2396,71.7592 47.9062,71.4259 51.5,70.5C 52.2975,70.9569 52.6309,71.6236 52.5,72.5 Z"/></g>
<g><path style="opacity:1" fill="#165b6f" d="M 171.5,71.5 C 172.257,81.4815 172.59,91.4815 172.5,101.5C 171.833,100.167 171.167,98.8333 170.5,97.5C 169.962,90.1781 169.629,82.8447 169.5,75.5C 168.5,75.5 167.5,75.5 166.5,75.5C 166.768,77.099 166.434,78.4324 165.5,79.5C 165.768,77.901 165.434,76.5676 164.5,75.5C 164.5,73.8333 164.5,72.1667 164.5,70.5C 167.408,69.4309 170.408,69.2642 173.5,70C 172.584,70.2784 171.918,70.7784 171.5,71.5 Z"/></g>
<g><path style="opacity:1" fill="#022540" d="M 57.5,65.5 C 58.4614,67.2646 58.7947,69.2646 58.5,71.5C 57.5442,73.8895 56.5442,76.3895 55.5,79C 56.5146,82.1443 56.5146,85.3109 55.5,88.5C 54.8826,88.6107 54.3826,88.944 54,89.5C 53.2425,83.8507 52.7425,78.184 52.5,72.5C 53.9213,69.9906 55.5879,67.6572 57.5,65.5 Z"/></g>
<g><path style="opacity:1" fill="#eff4f6" d="M 171.5,71.5 C 174.685,71.0196 177.519,71.6863 180,73.5C 180.74,101.913 182.24,130.246 184.5,158.5C 166.164,158.333 147.83,158.5 129.5,159C 123.659,166.941 116.325,168.941 107.5,165C 103.833,162.667 100.167,160.333 96.5,158C 78.8333,157.667 61.1667,157.333 43.5,157C 43,156.5 42.5,156 42,155.5C 41.5,134.503 41.3334,113.503 41.5,92.5C 41.5,85.8333 41.5,79.1667 41.5,72.5C 43.7354,72.2053 45.7354,72.5386 47.5,73.5C 47.1701,90.6749 47.5034,107.675 48.5,124.5C 48.5,125.167 48.5,125.833 48.5,126.5C 48.5,134.5 48.5,142.5 48.5,150.5C 49.5,150.5 50.5,150.5 51.5,150.5C 54.1667,150.5 56.8333,150.5 59.5,150.5C 71.1667,150.5 82.8333,150.5 94.5,150.5C 97.2869,151.477 100.287,151.81 103.5,151.5C 106.141,156.822 110.141,158.822 115.5,157.5C 120.167,154.332 125.167,151.998 130.5,150.5C 140.5,150.5 150.5,150.5 160.5,150.5C 165.5,151.833 170.5,151.833 175.5,150.5C 176.164,147.854 176.498,145.021 176.5,142C 176.161,135.127 175.494,128.294 174.5,121.5C 174.638,116.586 173.972,111.919 172.5,107.5C 172.5,105.5 172.5,103.5 172.5,101.5C 172.59,91.4815 172.257,81.4815 171.5,71.5 Z"/></g>
<g><path style="opacity:1" fill="#96b6c4" d="M 149.5,103.5 C 144.463,103.413 139.463,103.746 134.5,104.5C 134.918,103.778 135.584,103.278 136.5,103C 141.02,102.186 145.354,102.353 149.5,103.5 Z"/></g>
<g><path style="opacity:1" fill="#1d5264" d="M 137.5,96.5 C 144.975,94.5521 152.141,95.5521 159,99.5C 160.16,103.501 158.994,104.835 155.5,103.5C 156.014,102.375 156.347,101.209 156.5,100C 150.589,96.8348 144.255,95.6681 137.5,96.5 Z"/></g>
<g><path style="opacity:1" fill="#02385f" d="M 137.5,96.5 C 144.255,95.6681 150.589,96.8348 156.5,100C 156.347,101.209 156.014,102.375 155.5,103.5C 153.5,103.5 151.5,103.5 149.5,103.5C 145.354,102.353 141.02,102.186 136.5,103C 135.584,103.278 134.918,103.778 134.5,104.5C 131.211,105.374 127.877,106.041 124.5,106.5C 124.5,105.167 124.5,103.833 124.5,102.5C 125.15,102.804 125.817,103.137 126.5,103.5C 127.577,101.132 129.244,99.4655 131.5,98.5C 133.421,97.6373 135.421,96.9707 137.5,96.5 Z"/></g>
<g><path style="opacity:1" fill="#2a667f" d="M 131.5,98.5 C 129.244,99.4655 127.577,101.132 126.5,103.5C 125.817,103.137 125.15,102.804 124.5,102.5C 125.665,99.4098 127.998,98.0764 131.5,98.5 Z"/></g>
<g><path style="opacity:1" fill="#154872" d="M 67.5,97.5 C 68.5,97.5 69.5,97.5 70.5,97.5C 71.209,98.404 72.209,98.7373 73.5,98.5C 73.0472,99.4584 72.3805,100.292 71.5,101C 77.0049,100.787 82.3383,100.954 87.5,101.5C 81.1554,102.227 74.8221,102.727 68.5,103C 66.7088,101.21 66.3754,99.377 67.5,97.5 Z"/></g>
<g><path style="opacity:1" fill="#164a69" d="M 112.5,80.5 C 113.167,81.5 113.833,82.5 114.5,83.5C 116.257,91.0183 116.924,98.685 116.5,106.5C 115.674,101.684 115.174,96.6835 115,91.5C 114.5,98.4921 114.334,105.492 114.5,112.5C 113.778,112.918 113.278,113.584 113,114.5C 112.667,114.167 112.333,113.833 112,113.5C 111.501,117.821 111.334,122.154 111.5,126.5C 110.517,122.702 110.183,118.702 110.5,114.5C 110.227,107.496 109.894,100.496 109.5,93.5C 108.993,88.6836 109.993,84.3503 112.5,80.5 Z"/></g>
<g><path style="opacity:1" fill="#114066" d="M 92.5,97.5 C 93.5,97.5 94.5,97.5 95.5,97.5C 97.7834,97.6079 99.7834,98.4412 101.5,100C 103.184,102.786 102.517,104.62 99.5,105.5C 97.5775,104.908 95.9108,103.908 94.5,102.5C 94.6347,100.446 93.968,98.7791 92.5,97.5 Z"/></g>
<g><path style="opacity:1" fill="#013672" d="M 92.5,97.5 C 93.968,98.7791 94.6347,100.446 94.5,102.5C 92.2362,101.781 89.9029,101.448 87.5,101.5C 82.3383,100.954 77.0049,100.787 71.5,101C 72.3805,100.292 73.0472,99.4584 73.5,98.5C 79.7045,96.3989 86.0378,96.0655 92.5,97.5 Z"/></g>
<g><path style="opacity:1" fill="#bcd2da" d="M 107.5,79.5 C 108.167,84.1667 108.833,88.8333 109.5,93.5C 109.894,100.496 110.227,107.496 110.5,114.5C 108.071,103.101 107.071,91.4339 107.5,79.5 Z"/></g>
<g><path style="opacity:1" fill="#00476c" d="M 52.5,72.5 C 52.7425,78.184 53.2425,83.8507 54,89.5C 54.3826,88.944 54.8826,88.6107 55.5,88.5C 55.4955,92.5341 55.1621,96.5341 54.5,100.5C 53.0652,101.79 52.0652,103.456 51.5,105.5C 50.8332,99.6805 50.1665,94.0139 49.5,88.5C 49.8128,84.9581 49.4794,81.6248 48.5,78.5C 48.5,77.1667 48.5,75.8333 48.5,74.5C 49.791,74.7373 50.791,74.404 51.5,73.5C 51.5,72.8333 51.8333,72.5 52.5,72.5 Z"/></g>
<g><path style="opacity:1" fill="#002a4d" d="M 92.5,97.5 C 86.0378,96.0655 79.7045,96.3989 73.5,98.5C 72.209,98.7373 71.209,98.404 70.5,97.5C 75.1107,96.5151 79.7774,95.8484 84.5,95.5C 87.5267,95.2865 90.1934,95.9532 92.5,97.5 Z"/></g>
<g><path style="opacity:1" fill="#477a89" d="M 95.5,97.5 C 94.5,97.5 93.5,97.5 92.5,97.5C 90.1934,95.9532 87.5267,95.2865 84.5,95.5C 79.7774,95.8484 75.1107,96.5151 70.5,97.5C 69.5,97.5 68.5,97.5 67.5,97.5C 75.1756,94.8284 83.1756,93.9951 91.5,95C 93.0664,95.6082 94.3998,96.4415 95.5,97.5 Z"/></g>
<g><path style="opacity:1" fill="#09698c" d="M 170.5,97.5 C 171.089,101.971 170.423,105.971 168.5,109.5C 168.024,105.007 167.358,100.673 166.5,96.5C 166.5,95.1667 166.5,93.8333 166.5,92.5C 166.533,88.1311 166.2,83.7978 165.5,79.5C 166.434,78.4324 166.768,77.099 166.5,75.5C 167.5,75.5 168.5,75.5 169.5,75.5C 169.629,82.8447 169.962,90.1781 170.5,97.5 Z"/></g>
<g><path style="opacity:1" fill="#89a6ba" d="M 122.5,85.5 C 122.5,86.5 122.5,87.5 122.5,88.5C 125.969,88.4535 129.302,87.7868 132.5,86.5C 131.653,87.9663 130.32,88.7996 128.5,89C 126.19,89.4966 123.857,89.6633 121.5,89.5C 121.232,87.901 121.566,86.5676 122.5,85.5 Z"/></g>
<g><path style="opacity:1" fill="#c3dde3" d="M 155.5,81.5 C 157.344,83.2789 158.01,85.6122 157.5,88.5C 149.603,86.8394 141.603,86.1727 133.5,86.5C 139.645,85.5098 145.978,85.1765 152.5,85.5C 153.568,86.4345 154.901,86.7678 156.5,86.5C 156.634,84.7085 156.301,83.0418 155.5,81.5 Z"/></g>
<g><path style="opacity:1" fill="#a0bfcd" d="M 164.5,75.5 C 165.434,76.5676 165.768,77.901 165.5,79.5C 166.2,83.7978 166.533,88.1311 166.5,92.5C 165.116,87.0562 164.45,81.3895 164.5,75.5 Z"/></g>
<g><path style="opacity:1" fill="#102c52" d="M 152.5,85.5 C 145.978,85.1765 139.645,85.5098 133.5,86.5C 133.167,86.5 132.833,86.5 132.5,86.5C 129.302,87.7868 125.969,88.4535 122.5,88.5C 122.5,87.5 122.5,86.5 122.5,85.5C 124.956,83.1324 127.956,82.1324 131.5,82.5C 132.695,82.3225 133.862,81.9891 135,81.5C 141.231,82.4647 147.397,83.6314 153.5,85C 153.272,85.3988 152.938,85.5654 152.5,85.5 Z"/></g>
<g><path style="opacity:1" fill="#072f4c" d="M 73.5,79.5 C 82.718,77.4649 91.5513,78.7982 100,83.5C 100.494,85.1341 100.66,86.8008 100.5,88.5C 96.617,87.5412 92.9503,86.2078 89.5,84.5C 90.404,83.791 90.7373,82.791 90.5,81.5C 84.9755,79.9801 79.3088,79.3135 73.5,79.5 Z"/></g>
<g><path style="opacity:1" fill="#1d4b68" d="M 72.5,79.5 C 72.5,80.8333 72.5,82.1667 72.5,83.5C 77.3633,83.1805 82.03,83.5139 86.5,84.5C 80.7732,84.4828 75.1066,84.6494 69.5,85C 66.4133,81.1178 67.4133,79.2845 72.5,79.5 Z"/></g>
<g><path style="opacity:1" fill="#446689" d="M 47.5,73.5 C 48.8333,73.5 50.1667,73.5 51.5,73.5C 50.791,74.404 49.791,74.7373 48.5,74.5C 48.5,75.8333 48.5,77.1667 48.5,78.5C 48.5,93.8333 48.5,109.167 48.5,124.5C 47.5034,107.675 47.1701,90.6749 47.5,73.5 Z"/></g>
<g><path style="opacity:1" fill="#0b5071" d="M 155.5,81.5 C 156.301,83.0418 156.634,84.7085 156.5,86.5C 154.901,86.7678 153.568,86.4345 152.5,85.5C 152.938,85.5654 153.272,85.3988 153.5,85C 147.397,83.6314 141.231,82.4647 135,81.5C 133.862,81.9891 132.695,82.3225 131.5,82.5C 132.347,81.0337 133.68,80.2004 135.5,80C 142.315,79.1295 148.982,79.6295 155.5,81.5 Z"/></g>
<g><path style="opacity:1" fill="#002a5a" d="M 72.5,79.5 C 72.8333,79.5 73.1667,79.5 73.5,79.5C 79.3088,79.3135 84.9755,79.9801 90.5,81.5C 90.7373,82.791 90.404,83.791 89.5,84.5C 88.5,84.5 87.5,84.5 86.5,84.5C 82.03,83.5139 77.3633,83.1805 72.5,83.5C 72.5,82.1667 72.5,80.8333 72.5,79.5 Z"/></g>
<g><path style="opacity:1" fill="#224850" d="M 58.5,71.5 C 58.5,82.8333 58.5,94.1667 58.5,105.5C 58.5,108.5 58.5,111.5 58.5,114.5C 57.8333,116.5 57.1667,118.5 56.5,120.5C 57.1031,115.381 56.4364,110.715 54.5,106.5C 54.5,104.5 54.5,102.5 54.5,100.5C 55.1621,96.5341 55.4955,92.5341 55.5,88.5C 56.5146,85.3109 56.5146,82.1443 55.5,79C 56.5442,76.3895 57.5442,73.8895 58.5,71.5 Z"/></g>
<g><path style="opacity:1" fill="#016783" d="M 54.5,106.5 C 56.4364,110.715 57.1031,115.381 56.5,120.5C 56.5,122.167 56.5,123.833 56.5,125.5C 55.3314,129.213 53.8314,132.88 52,136.5C 51.1872,126.358 52.0206,116.358 54.5,106.5 Z"/></g>
<g><path style="opacity:1" fill="#347687" d="M 172.5,107.5 C 173.972,111.919 174.638,116.586 174.5,121.5C 173.833,119.5 173.167,117.5 172.5,115.5C 172.5,112.833 172.5,110.167 172.5,107.5 Z"/></g>
<g><path style="opacity:1" fill="#00103b" d="M 48.5,78.5 C 49.4794,81.6248 49.8128,84.9581 49.5,88.5C 49.9781,102.162 50.3114,115.829 50.5,129.5C 49.8333,128.5 49.1667,127.5 48.5,126.5C 48.5,125.833 48.5,125.167 48.5,124.5C 48.5,109.167 48.5,93.8333 48.5,78.5 Z"/></g>
<g><path style="opacity:1" fill="#0e4561" d="M 89.5,113.5 C 84.8215,113.334 80.1548,113.501 75.5,114C 79.9317,113.89 83.5984,115.39 86.5,118.5C 81.9242,118.438 77.5909,119.105 73.5,120.5C 67.4452,121.058 66.1119,118.891 69.5,114C 76.2874,112.374 82.954,112.208 89.5,113.5 Z"/></g>
<g><path style="opacity:1" fill="#13304e" d="M 153.5,114.5 C 146.262,115.216 138.928,116.216 131.5,117.5C 131.833,116.833 132.167,116.167 132.5,115.5C 136.248,113.947 140.248,113.281 144.5,113.5C 147.686,113.502 150.686,113.835 153.5,114.5 Z"/></g>
<g><path style="opacity:1" fill="#073c6a" d="M 153.5,114.5 C 158.335,114.966 160.335,117.633 159.5,122.5C 155.557,121.514 151.557,120.848 147.5,120.5C 146.036,119.84 144.369,119.507 142.5,119.5C 139.514,119.382 136.848,120.048 134.5,121.5C 133.833,121.5 133.167,121.5 132.5,121.5C 130.158,120.789 129.825,119.456 131.5,117.5C 138.928,116.216 146.262,115.216 153.5,114.5 Z"/></g>
<g><path style="opacity:1" fill="#86a8ba" d="M 166.5,96.5 C 167.358,100.673 168.024,105.007 168.5,109.5C 168.5,112.167 168.5,114.833 168.5,117.5C 167.017,110.721 166.35,103.721 166.5,96.5 Z"/></g>
<g><path style="opacity:1" fill="#052f4c" d="M 89.5,113.5 C 93.4124,113.624 97.0791,114.624 100.5,116.5C 102.604,118.583 102.938,120.917 101.5,123.5C 97.6921,121.717 93.6921,120.384 89.5,119.5C 88.791,118.596 87.791,118.263 86.5,118.5C 83.5984,115.39 79.9317,113.89 75.5,114C 80.1548,113.501 84.8215,113.334 89.5,113.5 Z"/></g>
<g><path style="opacity:1" fill="#9cb8ca" d="M 100.5,116.5 C 102.89,116.685 103.89,118.018 103.5,120.5C 103.36,122.03 102.693,123.03 101.5,123.5C 102.938,120.917 102.604,118.583 100.5,116.5 Z"/></g>
<g><path style="opacity:1" fill="#9bb7be" d="M 86.5,118.5 C 87.791,118.263 88.791,118.596 89.5,119.5C 84.1779,119.98 78.8446,120.313 73.5,120.5C 77.5909,119.105 81.9242,118.438 86.5,118.5 Z"/></g>
<g><path style="opacity:1" fill="#125172" d="M 132.5,115.5 C 132.167,116.167 131.833,116.833 131.5,117.5C 129.825,119.456 130.158,120.789 132.5,121.5C 130.924,122.143 129.59,123.143 128.5,124.5C 123.621,119.08 124.955,116.08 132.5,115.5 Z"/></g>
<g><path style="opacity:1" fill="#578da3" d="M 147.5,120.5 C 143.131,120.467 138.798,120.8 134.5,121.5C 136.848,120.048 139.514,119.382 142.5,119.5C 144.369,119.507 146.036,119.84 147.5,120.5 Z"/></g>
<g><path style="opacity:1" fill="#001937" d="M 116.5,106.5 C 116.5,107.167 116.5,107.833 116.5,108.5C 116.666,116.84 116.5,125.173 116,133.5C 115.829,126.321 115.329,119.321 114.5,112.5C 114.334,105.492 114.5,98.4921 115,91.5C 115.174,96.6835 115.674,101.684 116.5,106.5 Z"/></g>
<g><path style="opacity:1" fill="#4e6e71" d="M 58.5,105.5 C 58.8425,115.708 59.8425,125.708 61.5,135.5C 60.791,136.404 59.791,136.737 58.5,136.5C 58.5,129.167 58.5,121.833 58.5,114.5C 58.5,111.5 58.5,108.5 58.5,105.5 Z"/></g>
<g><path style="opacity:1" fill="#8fbcc8" d="M 132.5,121.5 C 133.167,121.5 133.833,121.5 134.5,121.5C 132.967,123.245 130.967,124.245 128.5,124.5C 129.59,123.143 130.924,122.143 132.5,121.5 Z"/></g>
<g><path style="opacity:1" fill="#123f64" d="M 116.5,108.5 C 117.492,116.316 117.826,124.316 117.5,132.5C 117.5,135.833 117.5,139.167 117.5,142.5C 116.167,142.5 114.833,142.5 113.5,142.5C 113.073,139.99 112.407,137.657 111.5,135.5C 111.5,132.5 111.5,129.5 111.5,126.5C 111.334,122.154 111.501,117.821 112,113.5C 112.333,113.833 112.667,114.167 113,114.5C 113.278,113.584 113.778,112.918 114.5,112.5C 115.329,119.321 115.829,126.321 116,133.5C 116.5,125.173 116.666,116.84 116.5,108.5 Z"/></g>
<g><path style="opacity:1" fill="#27535f" d="M 149.5,133.5 C 143.797,133.375 138.13,133.708 132.5,134.5C 135.526,132.981 138.859,132.315 142.5,132.5C 145.025,132.503 147.359,132.837 149.5,133.5 Z"/></g>
<g><path style="opacity:1" fill="#003959" d="M 49.5,88.5 C 50.1665,94.0139 50.8332,99.6805 51.5,105.5C 52.0652,103.456 53.0652,101.79 54.5,100.5C 54.5,102.5 54.5,104.5 54.5,106.5C 52.0206,116.358 51.1872,126.358 52,136.5C 53.8314,132.88 55.3314,129.213 56.5,125.5C 56.8,130.099 56.4667,134.599 55.5,139C 53.9238,139.44 52.5904,140.273 51.5,141.5C 50.5091,137.555 50.1758,133.555 50.5,129.5C 50.3114,115.829 49.9781,102.162 49.5,88.5 Z"/></g>
<g><path style="opacity:1" fill="#09344f" d="M 96.5,135.5 C 93.1788,135.536 90.0121,134.869 87,133.5C 86.1667,133.667 85.3333,133.833 84.5,134C 84.8333,134.333 85.1667,134.667 85.5,135C 83.8807,135.236 82.8807,136.069 82.5,137.5C 79.1667,137.5 75.8333,137.5 72.5,137.5C 72.5852,136.005 71.9185,135.005 70.5,134.5C 68.5914,135.348 66.5914,135.682 64.5,135.5C 63.5,135.5 62.5,135.5 61.5,135.5C 70.8329,132.644 80.4996,131.811 90.5,133C 92.8516,133.24 94.8516,134.073 96.5,135.5 Z"/></g>
<g><path style="opacity:1" fill="#00123e" d="M 72.5,137.5 C 69.8478,137.41 67.5145,138.076 65.5,139.5C 64.8333,139.5 64.1667,139.5 63.5,139.5C 62.8333,139.5 62.1667,139.5 61.5,139.5C 62.5,138.167 63.5,136.833 64.5,135.5C 66.5914,135.682 68.5914,135.348 70.5,134.5C 71.9185,135.005 72.5852,136.005 72.5,137.5 Z"/></g>
<g><path style="opacity:1" fill="#011e4a" d="M 96.5,135.5 C 98.9538,136.227 101.287,137.227 103.5,138.5C 102.448,140.256 100.781,140.923 98.5,140.5C 94.9155,139.417 91.2488,138.751 87.5,138.5C 86.0813,137.549 84.4147,137.216 82.5,137.5C 82.8807,136.069 83.8807,135.236 85.5,135C 85.1667,134.667 84.8333,134.333 84.5,134C 85.3333,133.833 86.1667,133.667 87,133.5C 90.0121,134.869 93.1788,135.536 96.5,135.5 Z"/></g>
<g><path style="opacity:1" fill="#033161" d="M 149.5,133.5 C 150.833,133.5 152.167,133.5 153.5,133.5C 152.665,134.943 151.332,135.943 149.5,136.5C 145.353,137.167 141.353,137.834 137.5,138.5C 135.473,138.338 133.473,138.505 131.5,139C 130.944,139.383 130.611,139.883 130.5,140.5C 129.167,140.5 127.833,140.5 126.5,140.5C 124.164,139.406 124.164,138.073 126.5,136.5C 128.102,134.926 130.102,134.259 132.5,134.5C 138.13,133.708 143.797,133.375 149.5,133.5 Z"/></g>
<g><path style="opacity:1" fill="#0d4e6d" d="M 170.5,97.5 C 171.167,98.8333 171.833,100.167 172.5,101.5C 172.5,103.5 172.5,105.5 172.5,107.5C 172.5,110.167 172.5,112.833 172.5,115.5C 173.167,117.5 173.833,119.5 174.5,121.5C 175.494,128.294 176.161,135.127 176.5,142C 176.498,145.021 176.164,147.854 175.5,150.5C 175.666,145.489 175.499,140.489 175,135.5C 174.501,139.821 174.334,144.154 174.5,148.5C 173.5,148.5 172.5,148.5 171.5,148.5C 171.657,147.127 171.49,145.793 171,144.5C 170.722,145.416 170.222,146.082 169.5,146.5C 169.579,145.07 169.246,143.736 168.5,142.5C 166.445,141.813 164.779,140.646 163.5,139C 161.203,138.982 158.869,139.149 156.5,139.5C 155.167,139.5 153.833,139.5 152.5,139.5C 147.695,138.513 142.695,138.179 137.5,138.5C 141.353,137.834 145.353,137.167 149.5,136.5C 151.332,135.943 152.665,134.943 153.5,133.5C 158.768,135.032 164.101,136.366 169.5,137.5C 169.287,130.826 168.954,124.159 168.5,117.5C 168.5,114.833 168.5,112.167 168.5,109.5C 170.423,105.971 171.089,101.971 170.5,97.5 Z"/></g>
<g><path style="opacity:1" fill="#00628e" d="M 172.5,115.5 C 172.799,123.226 172.799,130.892 172.5,138.5C 171.099,130.388 170.099,122.221 169.5,114C 169.833,113.167 170.167,112.333 170.5,111.5C 171.172,112.949 171.839,114.282 172.5,115.5 Z"/></g>
<g><path style="opacity:1" fill="#5d869f" d="M 72.5,137.5 C 75.8333,137.5 79.1667,137.5 82.5,137.5C 84.4147,137.216 86.0813,137.549 87.5,138.5C 80.1319,138.317 72.7985,138.65 65.5,139.5C 67.5145,138.076 69.8478,137.41 72.5,137.5 Z"/></g>
<g><path style="opacity:1" fill="#9abdcb" d="M 137.5,138.5 C 142.695,138.179 147.695,138.513 152.5,139.5C 145.11,139.236 137.777,139.57 130.5,140.5C 130.611,139.883 130.944,139.383 131.5,139C 133.473,138.505 135.473,138.338 137.5,138.5 Z"/></g>
<g><path style="opacity:1" fill="#326a78" d="M 169.5,146.5 C 169.5,146.833 169.5,147.167 169.5,147.5C 165.236,147.656 161.236,146.989 157.5,145.5C 161.264,145.909 164.93,145.909 168.5,145.5C 164.593,143.309 160.593,141.309 156.5,139.5C 158.869,139.149 161.203,138.982 163.5,139C 164.779,140.646 166.445,141.813 168.5,142.5C 169.246,143.736 169.579,145.07 169.5,146.5 Z"/></g>
<g><path style="opacity:1" fill="#06314f" d="M 175.5,150.5 C 170.5,151.833 165.5,151.833 160.5,150.5C 163.833,150.5 167.167,150.5 170.5,150.5C 170.737,149.209 170.404,148.209 169.5,147.5C 169.5,147.167 169.5,146.833 169.5,146.5C 170.222,146.082 170.722,145.416 171,144.5C 171.49,145.793 171.657,147.127 171.5,148.5C 172.5,148.5 173.5,148.5 174.5,148.5C 174.334,144.154 174.501,139.821 175,135.5C 175.499,140.489 175.666,145.489 175.5,150.5 Z"/></g>
<g><path style="opacity:1" fill="#f3f6f6" d="M 87.5,138.5 C 91.2734,140.584 95.2734,142.251 99.5,143.5C 97.2573,144.474 94.924,144.808 92.5,144.5C 79.788,145.146 67.4547,144.48 55.5,142.5C 55.8333,142.5 56.1667,142.5 56.5,142.5C 59.1573,142.065 61.4907,141.065 63.5,139.5C 64.1667,139.5 64.8333,139.5 65.5,139.5C 72.7985,138.65 80.1319,138.317 87.5,138.5 Z"/></g>
<g><path style="opacity:1" fill="#e8eff0" d="M 152.5,139.5 C 153.833,139.5 155.167,139.5 156.5,139.5C 160.593,141.309 164.593,143.309 168.5,145.5C 164.93,145.909 161.264,145.909 157.5,145.5C 150.5,145.5 143.5,145.5 136.5,145.5C 133.219,145.42 130.219,146.087 127.5,147.5C 127.167,147.5 126.833,147.5 126.5,147.5C 123.167,147.5 119.833,147.5 116.5,147.5C 114.871,145.804 115.204,144.804 117.5,144.5C 117.833,144.5 118.167,144.5 118.5,144.5C 118.56,145.043 118.893,145.376 119.5,145.5C 121.724,143.566 124.058,141.899 126.5,140.5C 127.833,140.5 129.167,140.5 130.5,140.5C 137.777,139.57 145.11,139.236 152.5,139.5 Z"/></g>
<g><path style="opacity:1" fill="#638898" d="M 117.5,132.5 C 118.167,135.5 118.833,138.5 119.5,141.5C 118.89,142.391 118.557,143.391 118.5,144.5C 118.167,144.5 117.833,144.5 117.5,144.5C 116.167,143.833 114.833,143.167 113.5,142.5C 114.833,142.5 116.167,142.5 117.5,142.5C 117.5,139.167 117.5,135.833 117.5,132.5 Z"/></g>
<g><path style="opacity:1" fill="#98a2aa" d="M 61.5,139.5 C 62.1667,139.5 62.8333,139.5 63.5,139.5C 61.4907,141.065 59.1573,142.065 56.5,142.5C 57.6594,140.75 59.326,139.75 61.5,139.5 Z"/></g>
<g><path style="opacity:1" fill="#052738" d="M 103.5,138.5 C 104.605,139.6 105.938,140.267 107.5,140.5C 108.306,141.728 109.306,142.728 110.5,143.5C 109.789,145.842 108.456,146.175 106.5,144.5C 103.515,143.674 100.849,142.341 98.5,140.5C 100.781,140.923 102.448,140.256 103.5,138.5 Z"/></g>
<g><path style="opacity:1" fill="#bacfdb" d="M 111.5,135.5 C 112.407,137.657 113.073,139.99 113.5,142.5C 114.833,143.167 116.167,143.833 117.5,144.5C 115.204,144.804 114.871,145.804 116.5,147.5C 115.167,147.5 113.833,147.5 112.5,147.5C 112.737,146.209 112.404,145.209 111.5,144.5C 111.5,143.833 111.167,143.5 110.5,143.5C 109.306,142.728 108.306,141.728 107.5,140.5C 108.583,140.539 109.583,140.873 110.5,141.5C 111.466,139.604 111.799,137.604 111.5,135.5 Z"/></g>
<g><path style="opacity:1" fill="#1b3653" d="M 126.5,136.5 C 124.164,138.073 124.164,139.406 126.5,140.5C 124.058,141.899 121.724,143.566 119.5,145.5C 118.893,145.376 118.56,145.043 118.5,144.5C 118.557,143.391 118.89,142.391 119.5,141.5C 121.55,139.453 123.883,137.786 126.5,136.5 Z"/></g>
<g><path style="opacity:1" fill="#4e7581" d="M 55.5,142.5 C 67.4547,144.48 79.788,145.146 92.5,144.5C 94.1667,145.167 95.8333,145.833 97.5,146.5C 94.8333,146.5 92.1667,146.5 89.5,146.5C 78.012,145.505 66.3453,145.172 54.5,145.5C 54.2627,144.209 54.596,143.209 55.5,142.5 Z"/></g>
<g><path style="opacity:1" fill="#c5dcde" d="M 87.5,138.5 C 91.2488,138.751 94.9155,139.417 98.5,140.5C 100.849,142.341 103.515,143.674 106.5,144.5C 106.443,145.609 106.11,146.609 105.5,147.5C 103.901,148.562 102.234,148.562 100.5,147.5C 99.609,146.89 98.609,146.557 97.5,146.5C 95.8333,145.833 94.1667,145.167 92.5,144.5C 94.924,144.808 97.2573,144.474 99.5,143.5C 95.2734,142.251 91.2734,140.584 87.5,138.5 Z"/></g>
<g><path style="opacity:1" fill="#011d39" d="M 58.5,114.5 C 58.5,121.833 58.5,129.167 58.5,136.5C 59.791,136.737 60.791,136.404 61.5,135.5C 62.5,135.5 63.5,135.5 64.5,135.5C 63.5,136.833 62.5,138.167 61.5,139.5C 59.326,139.75 57.6594,140.75 56.5,142.5C 56.1667,142.5 55.8333,142.5 55.5,142.5C 54.596,143.209 54.2627,144.209 54.5,145.5C 66.3453,145.172 78.012,145.505 89.5,146.5C 83.8333,146.5 78.1667,146.5 72.5,146.5C 65.825,146.334 59.1583,146.5 52.5,147C 50.6269,147.953 50.2935,149.12 51.5,150.5C 50.5,150.5 49.5,150.5 48.5,150.5C 48.5,142.5 48.5,134.5 48.5,126.5C 49.1667,127.5 49.8333,128.5 50.5,129.5C 50.1758,133.555 50.5091,137.555 51.5,141.5C 52.5904,140.273 53.9238,139.44 55.5,139C 56.4667,134.599 56.8,130.099 56.5,125.5C 56.5,123.833 56.5,122.167 56.5,120.5C 57.1667,118.5 57.8333,116.5 58.5,114.5 Z"/></g>
<g><path style="opacity:1" fill="#517c93" d="M 136.5,145.5 C 134.095,146.768 131.428,147.435 128.5,147.5C 128.167,147.5 127.833,147.5 127.5,147.5C 130.219,146.087 133.219,145.42 136.5,145.5 Z"/></g>
<g><path style="opacity:1" fill="#001a4b" d="M 72.5,146.5 C 71.3915,147.29 70.0581,147.79 68.5,148C 69.1667,148.333 69.8333,148.667 70.5,149C 66.6437,149.177 62.977,149.677 59.5,150.5C 56.8333,150.5 54.1667,150.5 51.5,150.5C 50.2935,149.12 50.6269,147.953 52.5,147C 59.1583,146.5 65.825,146.334 72.5,146.5 Z"/></g>
<g><path style="opacity:1" fill="#558c9f" d="M 111.5,144.5 C 112.404,145.209 112.737,146.209 112.5,147.5C 113.833,147.5 115.167,147.5 116.5,147.5C 119.833,147.5 123.167,147.5 126.5,147.5C 124.052,148.473 121.385,148.806 118.5,148.5C 116.167,148.5 113.833,148.5 111.5,148.5C 111.5,147.167 111.5,145.833 111.5,144.5 Z"/></g>
<g><path style="opacity:1" fill="#053a6f" d="M 72.5,146.5 C 78.1667,146.5 83.8333,146.5 89.5,146.5C 92.1667,146.5 94.8333,146.5 97.5,146.5C 98.609,146.557 99.609,146.89 100.5,147.5C 100.804,148.15 101.137,148.817 101.5,149.5C 99.2573,150.474 96.924,150.808 94.5,150.5C 82.8333,150.5 71.1667,150.5 59.5,150.5C 62.977,149.677 66.6437,149.177 70.5,149C 69.8333,148.667 69.1667,148.333 68.5,148C 70.0581,147.79 71.3915,147.29 72.5,146.5 Z"/></g>
<g><path style="opacity:1" fill="#36728e" d="M 100.5,147.5 C 102.234,148.562 103.901,148.562 105.5,147.5C 104.833,148.833 104.167,150.167 103.5,151.5C 100.287,151.81 97.2869,151.477 94.5,150.5C 96.924,150.808 99.2573,150.474 101.5,149.5C 101.137,148.817 100.804,148.15 100.5,147.5 Z"/></g>
<g><path style="opacity:1" fill="#0b2d5f" d="M 136.5,145.5 C 143.5,145.5 150.5,145.5 157.5,145.5C 161.236,146.989 165.236,147.656 169.5,147.5C 170.404,148.209 170.737,149.209 170.5,150.5C 167.167,150.5 163.833,150.5 160.5,150.5C 150.5,150.5 140.5,150.5 130.5,150.5C 126.551,150.307 126.551,149.807 130.5,149C 129.584,148.722 128.918,148.222 128.5,147.5C 131.428,147.435 134.095,146.768 136.5,145.5 Z"/></g>
<g><path style="opacity:1" fill="#03355c" d="M 126.5,147.5 C 126.833,147.5 127.167,147.5 127.5,147.5C 127.833,147.5 128.167,147.5 128.5,147.5C 128.918,148.222 129.584,148.722 130.5,149C 126.551,149.807 126.551,150.307 130.5,150.5C 125.167,151.998 120.167,154.332 115.5,157.5C 113.632,153.484 114.632,150.484 118.5,148.5C 121.385,148.806 124.052,148.473 126.5,147.5 Z"/></g>
<g><path style="opacity:1" fill="#04324a" d="M 110.5,143.5 C 111.167,143.5 111.5,143.833 111.5,144.5C 111.5,145.833 111.5,147.167 111.5,148.5C 113.833,148.5 116.167,148.5 118.5,148.5C 114.632,150.484 113.632,153.484 115.5,157.5C 110.141,158.822 106.141,156.822 103.5,151.5C 104.167,150.167 104.833,148.833 105.5,147.5C 106.11,146.609 106.443,145.609 106.5,144.5C 108.456,146.175 109.789,145.842 110.5,143.5 Z"/></g>
</svg>
